<svg version="1.1" id="Layer_1" xmlns="http://www.w3.org/2000/svg" xmlns:xlink="http://www.w3.org/1999/xlink" x="0px" y="0px" viewBox="0 0 512 512" style="enable-background:new 0 0 512 512;" xml:space="preserve">
<style type="text/css">
	.st0{fill:#ffffff;}
</style>
<g id="XMLID_1_">
	<path id="XMLID_6_" class="st0" d="M174.5,197.05l-0.84-2.67c-0.42-0.84-0.98-3.37,2.53-3.37h4.49h7.44c1.96,0,2.24,1.82,2.67,2.67&#10;&#9;&#9;l19.92,57.25c0,0,1.54,5.05,2.81,5.05c1.4,0,2.95-5.05,2.95-5.05l19.5-57.25c0.42-0.84,0.7-2.67,3.37-2.67h11.22&#10;&#9;&#9;c3.09,0,2.95,1.82,2.67,2.67l-1.12,2.95l-34.09,98.5c-0.7,3.23-8.98,3.09-9.4,0L174.5,197.05z"/>
	<path id="XMLID_7_" class="st0" d="M453.85,297.93l-35.08-104.39c-0.42-0.84-0.42-2.67,2.67-2.67h13.05c0.84,0,2.1,0.42,2.67,2.67&#10;&#9;&#9;c0,0,22.59,68.19,23.29,70.43c0.84,2.39,1.68,5.05,2.67,5.19c0.84,0.14,1.82-1.82,2.67-3.93c0.98-2.81,27.5-71.14,27.5-71.14&#10;&#9;&#9;c0.28-0.84,0.7-1.54,0.84-1.96c0.28-0.42,0.84-0.7,1.68-0.7h8.28h5.05c3.23,0,2.95,1.82,2.67,2.67l-47.28,121.79l-11.79,28.48&#10;&#9;&#9;c-0.42,0.84-0.7,1.54-1.12,1.82c-0.14,0.56-0.7,0.84-1.54,0.84h-11.93c-0.84,0-1.68-0.28-2.39-0.84c-0.56-0.42-0.56-0.98-0.28-1.82&#10;&#9;&#9;L453.85,297.93z"/>
	<path id="XMLID_8_" class="st0" d="M247.32,252.61c0-2.53,0.84-4.63,2.53-6.45c1.82-1.82,4.07-2.81,6.73-2.81&#10;&#9;&#9;c2.53,0,4.63,0.98,6.45,2.81c1.82,1.82,2.81,4.07,2.81,6.45c0,2.67-0.98,4.91-2.81,6.73c-1.82,1.68-4.07,2.53-6.45,2.53&#10;&#9;&#9;c-2.67,0-4.77-0.84-6.59-2.67C248.16,257.38,247.32,255.28,247.32,252.61"/>
	<path id="XMLID_9_" class="st0" d="M310.18,208.7c-2.24,0.84-4.07,2.39-5.89,3.79c-0.56,0.28-1.12,0.84-1.54,1.26l-1.26,1.26&#10;&#9;&#9;c-1.54,1.96-2.81,4.07-3.65,6.31c-1.26,2.81-1.82,5.89-1.82,9.26v63.7c0,1.82-0.84,2.67-2.67,2.67h-10.66&#10;&#9;&#9;c-1.82,0-2.67-0.84-2.67-2.67v-63.56c0-2.53,0.14-4.91,0.56-7.44c0.56-2.81,1.4-5.47,2.67-8c2.1-4.91,4.91-9.26,8.42-12.77&#10;&#9;&#9;c3.51-3.51,7.72-6.31,12.49-8.42c2.67-1.12,5.33-1.82,8-2.39c1.54-0.42,3.23-0.56,4.77-0.84h2.95&#10;&#9;&#9;c21.47-0.42,31.57,12.91,34.38,15.43c1.26,1.26,1.4,3.51-0.7,4.35l-9.54,2.53c-2.67,0.98-4.35,0.56-6.31-1.26&#10;&#9;&#9;C336.97,211.36,324.77,202.66,310.18,208.7"/>
	<path id="XMLID_12_" class="st0" d="M399.83,281.09h-28.06c-4.49-0.14-15.85-2.81-15.85-15.85c0-4.63,1.96-9.12,4.63-11.51&#10;&#9;&#9;c5.33-4.63,11.22-4.35,11.22-4.35h25.4c1.4,0,2.24,0.7,2.67,2.1V281.09z M412.6,215.15c-2.1-4.91-4.91-9.12-8.56-12.63&#10;&#9;&#9;c-3.51-3.51-16.42-14.03-42.93-9.82c-2.67,0.98-2.24,2.67,0.28,5.19c1.12,0.98,5.47,5.89,7.02,7.16c2.95,2.39,4.63,2.1,5.75,1.96&#10;&#9;&#9;c23.57-1.26,25.68,20.2,25.68,23.57v0.84c-0.42,1.26-1.26,1.82-2.67,1.82h-25.4c-4.21,0-8.28,0.84-12.21,2.53&#10;&#9;&#9;c-3.93,1.68-7.3,3.93-10.24,6.73c-2.95,2.81-5.19,6.17-6.88,10.1c-1.68,3.93-2.53,8-2.53,12.49c0,4.21,0.84,8.28,2.53,12.21&#10;&#9;&#9;c1.68,3.93,3.93,7.3,6.88,10.24c2.95,2.95,6.31,5.19,10.24,6.88s8,2.53,12.21,2.53h30.03h0.84h10.66c1.82,0,2.67-0.84,2.67-2.67&#10;&#9;&#9;v-63.56C415.83,225.25,414.71,220.06,412.6,215.15"/>
	<path id="XMLID_17_" class="st0" d="M80.49,189.47c11.08,0,20.2-2.81,20.2-6.17c0.14-3.37-8.84-6.17-19.92-6.17&#10;&#9;&#9;s-20.2,2.81-20.2,6.17C60.43,186.53,69.41,189.47,80.49,189.47 M78.81,310.7c-38.87,0-70.29-31.43-70.29-70.29&#10;&#9;&#9;c0-22.73,10.8-42.79,27.5-55.7c-28.06,31.71,3.37,100.04,21.47,101.86c22.59,1.4,31.15-69.87,57.67-78.99&#10;&#9;&#9;c19.92-7.44,34.94,22.31,25.82,55.84C131.71,292.04,108.13,310.14,78.81,310.7 M46.4,182.32c5.33-6.03,14.31-10.66,26.52-11.93&#10;&#9;&#9;c1.96-0.14,3.93-0.28,5.89-0.28c19.92,0,37.74,8.28,50.51,21.47c-1.82-0.56-4.35-1.4-9.12-1.4c-38.87,0-52.05,76.89-63.7,76.61&#10;&#9;&#9;C48.78,267.06,22.41,209.26,46.4,182.32 M78.81,165.06c-43.64,0-78.85,35.36-78.85,78.85s35.36,78.85,78.85,78.85&#10;&#9;&#9;s78.85-35.36,78.85-78.85S122.44,165.06,78.81,165.06"/>
</g>
</svg>